<svg width="40" height="40" viewBox="0 0 40 40" fill="none" xmlns="http://www.w3.org/2000/svg">
    <path d="M20.0007 3.3335C17.812 3.3335 15.6447 3.76459 13.6226 4.60217C11.6005 5.43975 9.76318 6.66741 8.21554 8.21505C5.08993 11.3407 3.33398 15.5799 3.33398 20.0002C3.33398 27.3668 8.11732 33.6168 14.734 35.8335C15.5673 35.9668 15.834 35.4502 15.834 35.0002V32.1835C11.2173 33.1835 10.234 29.9502 10.234 29.9502C9.46732 28.0168 8.38398 27.5002 8.38398 27.5002C6.86732 26.4668 8.50065 26.5002 8.50065 26.5002C10.1673 26.6168 11.0507 28.2168 11.0507 28.2168C12.5007 30.7502 14.9507 30.0002 15.9007 29.6002C16.0507 28.5168 16.484 27.7835 16.9507 27.3668C13.2507 26.9502 9.36732 25.5168 9.36732 19.1668C9.36732 17.3168 10.0007 15.8335 11.084 14.6502C10.9173 14.2335 10.334 12.5002 11.2507 10.2502C11.2507 10.2502 12.6507 9.80016 15.834 11.9502C17.1507 11.5835 18.584 11.4002 20.0007 11.4002C21.4173 11.4002 22.8507 11.5835 24.1673 11.9502C27.3507 9.80016 28.7507 10.2502 28.7507 10.2502C29.6673 12.5002 29.084 14.2335 28.9173 14.6502C30.0007 15.8335 30.634 17.3168 30.634 19.1668C30.634 25.5335 26.734 26.9335 23.0173 27.3502C23.6173 27.8668 24.1673 28.8835 24.1673 30.4335V35.0002C24.1673 35.4502 24.434 35.9835 25.284 35.8335C31.9007 33.6002 36.6673 27.3668 36.6673 20.0002C36.6673 17.8115 36.2362 15.6442 35.3986 13.6221C34.5611 11.6 33.3334 9.76269 31.7858 8.21505C30.2381 6.66741 28.4008 5.43975 26.3787 4.60217C24.3566 3.76459 22.1893 3.3335 20.0007 3.3335Z" fill="var(--svg-icon-color, #fff)" />
</svg>