<svg width="71" height="71" viewBox="0 0 71 71" fill="none" xmlns="http://www.w3.org/2000/svg">
  <path d="M53.9746 23.8333C54.9867 25.5717 56.8475 26.75 59 26.75C60.5471 26.75 62.0308 26.1354 63.1248 25.0415C64.2187 23.9475 64.8333 22.4638 64.8333 20.9167C64.8333 19.3696 64.2187 17.8858 63.1248 16.7919C62.0308 15.6979 60.5471 15.0833 59 15.0833C56.8475 15.0833 54.9867 16.2617 53.9746 18H47.3333V12.1667C47.3333 11.3931 47.026 10.6513 46.4791 10.1043C45.9321 9.55729 45.1902 9.25 44.4167 9.25H26.9167C26.1431 9.25 25.4013 9.55729 24.8543 10.1043C24.3073 10.6513 24 11.3931 24 12.1667V18H17.3587C16.3467 16.2617 14.4858 15.0833 12.3333 15.0833C10.7862 15.0833 9.30251 15.6979 8.20854 16.7919C7.11458 17.8858 6.5 19.3696 6.5 20.9167C6.5 22.4638 7.11458 23.9475 8.20854 25.0415C9.30251 26.1354 10.7862 26.75 12.3333 26.75C14.4858 26.75 16.3467 25.5717 17.3587 23.8333H24V24.9067C15.6408 29.1971 13.2637 37.0575 12.6017 41.3333H9.41667C8.64312 41.3333 7.90125 41.6406 7.35427 42.1876C6.80729 42.7346 6.5 43.4765 6.5 44.25V55.9167C6.5 56.6902 6.80729 57.4321 7.35427 57.9791C7.90125 58.526 8.64312 58.8333 9.41667 58.8333H21.0833C21.8569 58.8333 22.5987 58.526 23.1457 57.9791C23.6927 57.4321 24 56.6902 24 55.9167V44.25C24 43.4765 23.6927 42.7346 23.1457 42.1876C22.5987 41.6406 21.8569 41.3333 21.0833 41.3333H18.5254C19.1 38.5362 20.6196 34.3158 24.6067 31.3642C24.8671 31.7363 25.2125 32.041 25.6143 32.253C26.016 32.4651 26.4625 32.5783 26.9167 32.5833H44.4167C44.8711 32.578 45.3178 32.4643 45.7195 32.2517C46.1213 32.0392 46.4665 31.7339 46.7267 31.3612C50.7312 34.3158 52.2537 38.5304 52.8196 41.3333H50.25C49.4764 41.3333 48.7346 41.6406 48.1876 42.1876C47.6406 42.7346 47.3333 43.4765 47.3333 44.25V55.9167C47.3333 56.6902 47.6406 57.4321 48.1876 57.9791C48.7346 58.526 49.4764 58.8333 50.25 58.8333H61.9167C62.6902 58.8333 63.4321 58.526 63.9791 57.9791C64.526 57.4321 64.8333 56.6902 64.8333 55.9167V44.25C64.8333 43.4765 64.526 42.7346 63.9791 42.1876C63.4321 41.6406 62.6902 41.3333 61.9167 41.3333H58.7317C58.0696 37.0575 55.6925 29.1971 47.3333 24.9067V23.8333H53.9746ZM41.5 26.75H29.8333V15.0833H41.5V26.75Z" fill="var(--svg-icon-color, #000)" />
</svg>